<svg data-v-9034e032="" role="img" aria-labelledby="logo" width="438" height="156" viewBox="0 0 438 156" fill="none" xmlns="http://www.w3.org/2000/svg"><title data-v-9034e032="">American Civil Liberties Union home</title><path data-v-9034e032="" fill="#D9192B" d="M173.4 116.3C164 116.3 160.5 111.8 160.5 102.6V52.8C160.5 43.6 163.9 39.1 173.4 39.1H178.1C187.5 39.1 191 43.6 191 52.8V63.3H229.2V92.1H191V102.6C191 111.8 187.6 116.3 178.1 116.3H173.4V116.3ZM51.7 93.4L62 37.6H64.1L74.6 93.4H51.7ZM0 152.8H40.6L45.5 126.4H80.9L85.8 152.8H127.9L123.2 130C130.7 146.5 146.6 155.3 171.5 155.3H176.2C209 155.3 226.4 140.1 229.2 113.9V152.7H327.1V128C335.5 146.5 352 155.3 377.3 155.3H383.1C419.2 155.3 437.8 136.8 437.8 101.4V2.6H395.1V103.3C395.1 111.9 391.9 116.4 382.7 116.4H377.8C368.4 116.4 365.4 111.9 365.4 103.3V2.6H322.7V111.8H272V2.6H229.3V39.9C226.5 14.8 210.2 -7.62939e-07 178.2 -7.62939e-07H171.5C134.8 -7.62939e-07 118.1 18.7 118.1 52.8V102.6V105.4L96.8 2.6H31.1L0 152.8Z" transform="translate(0.142578 0.399902)"></path></svg>