<?xml version="1.0" encoding="UTF-8"?>
<!DOCTYPE svg PUBLIC "-//W3C//DTD SVG 1.1//EN" "http://www.w3.org/Graphics/SVG/1.1/DTD/svg11.dtd">
<!-- Creator: CorelDRAW -->
<svg xmlns="http://www.w3.org/2000/svg" xml:space="preserve" width="1500" height="1560" version="1.1" style="shape-rendering:geometricPrecision; text-rendering:geometricPrecision; image-rendering:optimizeQuality; fill-rule:evenodd; clip-rule:evenodd"
viewBox="0 0 1500 1560"
 xmlns:xlink="http://www.w3.org/1999/xlink"
 xmlns:xodm="http://www.corel.com/coreldraw/odm/2003">
 <defs>
  <style type="text/css">
   <![CDATA[
    .fil3 {fill:black}
    .fil0 {fill:#364861;stroke:#364861;stroke-width:20px;stroke-linejoin:round}
    .fil2 {fill:#636B2F;stroke:#636B2F;stroke-width:20px;stroke-linejoin:round}
    .fil1 {fill:#E35336;stroke:#E35336;stroke-width:20px;stroke-linejoin:round}
   ]]>
  </style>
 </defs>
 <g id="Capa_x0020_1">
  <metadata id="CorelCorpID_0Corel-Layer"/>
  <g id="_7WF">
   <path class="fil0" d="M1369.19 693.68c-33.21,-16.4 -64.97,-32.05 -97.14,-47.96 -8.98,15.04 -20.31,23.37 -36.8,19.61 -14.27,-3.27 -22.08,-12.98 -23.37,-29.26 -60.39,3.02 -114.16,22.94 -159.69,61.9 -45.28,38.77 -73.28,88.53 -83.71,148.45 -36.7,-17.36 -72.73,-34.18 -108.57,-51.39 -162.18,-77.83 -324.53,-155.2 -486.29,-233.8 -86.06,-41.84 -171.13,-85.71 -256.5,-128.96 -4.63,-2.38 -9.65,-6.9 -11.4,-11.57 -35.27,-94.29 -70.09,-188.76 -104.98,-283.18 -0.39,-1.04 -0.52,-2.15 -0.74,-3.12 202.98,129.56 406,259.15 609,388.68 0.84,-1.02 1.71,-2.07 2.57,-3.11 -15.09,-23.15 -30.32,-46.15 -45.18,-69.39 -31.33,-49.06 -63.39,-97.67 -93.09,-147.72 -7.27,-12.27 -8.08,-29.11 -9.33,-44.07 -7.04,-85.12 -13.35,-170.35 -19.88,-255.51 -0.07,-0.94 0.4,-1.96 0.67,-3.29 170.25,213.77 340.14,427.06 510.73,641.22 21.69,-36.33 49.31,-65.46 82.75,-89.13 85.44,-60.44 201.16,-64.64 286.96,-10.09 29.58,18.81 53.07,43.87 71.5,73.5 5.94,9.57 13.18,16.02 23.54,20.45 26.96,11.63 53.54,24.17 79.95,38.95 -10.46,2.06 -20.98,3.89 -31.43,6.11 -78.74,16.89 -126.55,65.29 -145.93,142.97 -9.5,38.13 -16.96,77.08 -30.27,113.88 -43.04,118.85 -125.38,202.96 -236.99,259.94 -64.81,33.07 -134.7,49.74 -205.43,63.61 -66.77,13.13 -133.67,25.59 -200.57,38.33 -3.21,0.59 -6.55,0.74 -9.86,1.13 -0.74,-1.06 -1.46,-2.1 -2.2,-3.19 52.95,-46.78 105.11,-94.59 159.04,-140.24 81.91,-69.37 173.28,-124.51 268.03,-174.52 44.74,-23.6 89.96,-47.61 121.35,-89.03 18.65,-24.63 34.3,-51.57 50.97,-77.68 32.15,-50.3 72.13,-92.12 126.42,-118.83 1.31,-0.62 2.47,-1.54 5.86,-3.71z"/>
   <path class="fil1" d="M342.5 1559.65c0.15,-3.24 -0.37,-6.7 0.57,-9.67 24.61,-78 49.37,-155.92 74.04,-233.84 0.69,-2.15 1.14,-4.35 2.15,-8.27 -13.03,3.44 -25.05,6.36 -36.94,9.77 -106.86,30.71 -213.67,61.48 -320.53,92.12 -2.82,0.84 -5.94,0.62 -8.93,0.86l-0.2 0.47c83.91,-61.01 167.3,-122.76 251.93,-182.83 92.39,-65.61 184.98,-130.99 279.4,-193.63 34.4,-22.82 74.22,-37.49 111.58,-55.81 1.96,-0.96 4.03,-1.68 7.96,-3.26 -34.3,-2.72 -66.43,-6.11 -98.65,-7.62 -81.96,-3.85 -154.1,-33.28 -219.17,-82 -16.71,-12.48 -33.28,-25.17 -50.43,-38.13 198.29,24.46 395.14,48.75 592.67,73.11 -6.58,7.09 -13.65,14.67 -20.68,22.33 -137.87,150.02 -275.74,300.03 -413.63,450.02 -48.48,52.75 -96.97,105.48 -145.37,158.28 -2.27,2.44 -3.95,5.52 -5.91,8.29l0.13 -0.15z"/>
   <path class="fil2" d="M908.81 873.52c-16.38,-2.59 -32.87,-4.5 -49.04,-7.87 -127.98,-26.53 -256.11,-52.3 -383.71,-80.44 -56.69,-12.46 -112.28,-29.9 -168.41,-44.86 -22.92,-6.11 -41.5,-18.89 -58.16,-35.29 -42.84,-42.17 -74.54,-92.02 -103.2,-147.64 250.64,117.84 510.73,206.47 763.37,313.23 -0.3,0.96 -0.55,1.91 -0.84,2.87z"/>
   <path class="fil3" d="M52.86 1410.65c0.05,0.25 0.13,0.52 0.19,0.74 -0.12,-0.1 -0.24,-0.22 -0.39,-0.3 0,0 0.2,-0.45 0.2,-0.45z"/>
   <polygon class="fil3" points="342.38,1559.8 341.86,1559.42 342.51,1559.65 "/>
  </g>
 </g>
</svg>
