<?xml version="1.0" encoding="UTF-8"?>
<!DOCTYPE svg PUBLIC "-//W3C//DTD SVG 1.1//EN" "http://www.w3.org/Graphics/SVG/1.1/DTD/svg11.dtd">
<!-- Creator: CorelDRAW -->
<svg xmlns="http://www.w3.org/2000/svg" xml:space="preserve" width="7.33333in" height="1.5598in" version="1.1" style="shape-rendering:geometricPrecision; text-rendering:geometricPrecision; image-rendering:optimizeQuality; fill-rule:evenodd; clip-rule:evenodd"
viewBox="0 0 7333.33 1559.8"
 xmlns:xlink="http://www.w3.org/1999/xlink"
 xmlns:xodm="http://www.corel.com/coreldraw/odm/2003">
 <defs>
  <style type="text/css">
   <![CDATA[
    .fil3 {fill:black}
    .fil0 {fill:#364861;stroke:#364861;stroke-width:20px;stroke-linejoin:round}
    .fil2 {fill:#636B2F;stroke:#636B2F;stroke-width:20px;stroke-linejoin:round}
    .fil1 {fill:#E35336;stroke:#E35336;stroke-width:20px;stroke-linejoin:round}
   ]]>
  </style>
 </defs>
 <g id="Capa_x0020_1">
  <metadata id="CorelCorpID_0Corel-Layer"/>
  <g id="_7WT">
   <path class="fil0" d="M1851.94 1138.44c-32.2,-5.79 -58.51,-13.63 -78.89,-23.52l0 -75.98c52.84,24.76 109.85,37.15 170.96,37.15 85.86,0 128.82,-28.91 128.82,-86.7 0,-19.81 -4.7,-35.78 -14.07,-47.88 -9.35,-12.09 -22.82,-22.7 -40.43,-31.8 -17.63,-9.05 -46.27,-21.56 -85.89,-37.59 -54.48,-22.01 -93.85,-46.2 -118.06,-72.66 -24.23,-26.39 -36.35,-59.7 -36.35,-99.88 0,-30.27 8.28,-57.13 24.77,-80.5 16.52,-23.42 39.64,-41.57 69.37,-54.5 29.72,-12.96 63.85,-19.42 102.38,-19.42 31.35,0 59.72,2.5 85.05,7.42 25.3,4.97 50.1,12.96 74.31,23.93l0 72.69c-47.9,-21.44 -96.33,-32.2 -145.34,-32.2 -39.61,0 -69.91,7.18 -90.81,21.47 -20.95,14.31 -31.39,34.67 -31.39,61.11 0,18.18 4.55,33.43 13.66,45.83 9.05,12.37 22.52,23.39 40.41,33.01 17.9,9.65 44.49,21.64 79.7,35.94 39.07,15.95 69.89,31.11 92.46,45.4 22.58,14.3 39.8,31.81 51.61,52.43 11.85,20.65 17.76,46.39 17.76,77.21 0,50.07 -17.88,88.91 -53.66,116.43 -35.81,27.52 -88.61,41.27 -158.52,41.27 -33.05,0 -65.69,-2.87 -97.86,-8.65z"/>
   <path class="fil0" d="M2232.16 738.39l80.89 0 0 58.61c40.76,-47.33 95.81,-71 165.17,-71 39.62,0 75.26,8.78 106.94,26.41 31.63,17.63 56.4,42.26 74.29,73.92 17.88,31.66 26.83,68.38 26.83,110.22 0,41.28 -8.95,77.9 -26.83,109.83 -17.89,31.9 -42.49,56.68 -73.89,74.31 -31.36,17.61 -67.17,26.39 -107.33,26.39 -33.04,0 -63.87,-5.5 -92.48,-16.47 -28.64,-11.03 -52.01,-27.28 -70.17,-48.72l0 233.65 -83.41 0 0 -577.15zm300.15 324.91c21.71,-11.83 38.8,-28.74 51.17,-50.8 12.41,-22 18.59,-47.3 18.59,-75.94 0,-28.64 -6.18,-53.81 -18.59,-75.57 -12.37,-21.74 -29.46,-38.48 -51.17,-50.35 -21.77,-11.82 -46.13,-17.76 -73.1,-17.76 -33.56,0 -63.16,8.8 -88.76,26.41 -25.59,17.66 -43.87,41.84 -54.88,72.68l0 89.18c9.35,30.27 27.23,54.48 53.64,72.66 26.44,18.18 56.43,27.23 90,27.23 26.98,0 51.33,-5.86 73.1,-17.73z"/>
   <path class="fil0" d="M2762.67 1110.38c-28.91,-24.51 -43.35,-57.67 -43.35,-99.49 0,-44.07 13.9,-78.08 41.69,-102.02 27.8,-23.93 67.29,-35.91 118.49,-35.91 54.5,0 100.77,11 138.74,33.02l0 -20.65c0,-31.35 -9.5,-54.6 -28.49,-69.76 -18.97,-15.11 -48.85,-22.72 -89.61,-22.72 -24.23,0 -47.75,2.37 -70.6,7.05 -22.85,4.67 -43.33,11.13 -61.53,19.41l0 -67.71c16.54,-7.72 38.01,-13.9 64.42,-18.6 26.46,-4.65 52.04,-7.02 76.79,-7.02 65.51,0 114.08,14.47 145.76,43.35 31.63,28.91 47.46,68.95 47.46,120.14l0 245.25 -78.42 0 0 -44.58c-17.09,18.72 -37.3,32.89 -60.69,42.51 -23.39,9.62 -51.88,14.44 -85.47,14.44 -47.88,0 -86.28,-12.22 -115.19,-36.7zm207.69 -42.54c21.46,-10.46 37.41,-25.06 47.88,-43.77l0 -53.67c-35.81,-23.13 -75.72,-34.7 -119.75,-34.7 -31.92,0 -55.74,6.21 -71.4,18.59 -15.7,12.37 -23.57,31.24 -23.57,56.59 0,48.39 31.69,72.65 94.96,72.65 26.44,0 50.37,-5.26 71.87,-15.7z"/>
   <path class="fil0" d="M3185.02 738.38l80.89 0 0 71c16.54,-24.21 39.79,-42.09 69.79,-53.66 30,-11.56 64.82,-17.34 104.44,-17.34l0 65.22c-42.36,0 -78.69,6.92 -108.96,20.65 -30.3,13.78 -51.21,35.51 -62.77,65.24l0 245.25 -83.39 0 0 -396.35z"/>
   <path class="fil0" d="M3489.69 738.38l80.92 0 0 71c16.52,-24.21 39.77,-42.09 69.76,-53.66 30,-11.56 64.81,-17.34 104.46,-17.34l0 65.22c-42.38,0 -78.72,6.92 -108.98,20.65 -30.29,13.78 -51.19,35.51 -62.74,65.24l0 245.25 -83.41 0 0 -396.35z"/>
   <path class="fil0" d="M3877.37 1121.92c-33.86,-16.82 -60.29,-41 -79.26,-72.66 -18.99,-31.63 -28.49,-68.94 -28.49,-111.87 0,-42.42 9.35,-79.56 28.07,-111.49 18.69,-31.9 45.13,-56.56 79.23,-73.89 34.15,-17.33 73.52,-26.02 118.11,-26.02 44.59,0 83.93,8.68 118.09,26.02 34.1,17.33 60.69,41.99 79.66,73.89 18.99,31.93 28.49,69.07 28.49,111.49 0,42.93 -9.5,80.24 -28.49,111.87 -18.97,31.66 -45.56,55.84 -79.66,72.66 -34.15,16.77 -73.5,25.17 -118.09,25.17 -44.59,0 -83.78,-8.41 -117.67,-25.17zm220.05 -80.52c25.32,-26.39 37.96,-61.08 37.96,-104.01 0,-44.62 -12.64,-79.83 -37.96,-105.72 -25.35,-25.84 -59.45,-38.8 -102.39,-38.8 -42.93,0 -77.08,12.96 -102.41,38.8 -25.32,25.89 -37.96,61.11 -37.96,105.72 0,42.93 12.64,77.62 37.96,104.01 25.33,26.44 59.48,39.64 102.41,39.64 42.93,0 77.04,-13.2 102.39,-39.64z"/>
   <polygon class="fil0" points="4221.27,738.38 4306.32,738.38 4395.49,1032.32 4483.86,738.38 4559.01,738.38 4647.35,1032.32 4736.52,738.38 4822.39,738.38 4693.59,1134.74 4613.46,1134.74 4521.84,839.13 4430.19,1134.74 4349.25,1134.74 "/>
   <path class="fil0" d="M4863.69 557.56l265.03 0c51.22,0 90.86,13.21 118.93,39.62 28.07,26.43 42.09,64.94 42.09,115.59 0,28.67 -6.73,53.82 -20.21,75.55 -13.5,21.76 -31.26,37.86 -53.29,48.3 61.67,18.2 92.49,63.06 92.49,134.61 0,33.61 -7.32,62.64 -21.87,87.1 -14.61,24.53 -34.55,43.37 -59.87,56.58 -25.33,13.2 -53.42,19.81 -84.26,19.81l-279.06 0 0 -577.15zm254.3 247.7c26.98,0 48.2,-7.44 63.58,-22.28 15.38,-14.86 23.13,-36.87 23.13,-66.08 0,-33.56 -7.57,-57.1 -22.7,-70.58 -15.13,-13.48 -38.41,-20.23 -69.76,-20.23l-164.3 0 0 179.17 170.06 0zm5.79 260.93c32.49,0 57.25,-7.18 74.31,-21.47 17.06,-14.31 25.61,-38.8 25.61,-73.5 0,-34.65 -8.97,-59.45 -26.83,-74.31 -17.91,-14.86 -44.74,-22.28 -80.53,-22.28l-168.43 0 0 191.57 175.85 0z"/>
   <path class="fil0" d="M5378.9 738.38l80.9 0 0 71c16.54,-24.21 39.79,-42.09 69.78,-53.66 30,-11.56 64.82,-17.34 104.44,-17.34l0 65.22c-42.36,0 -78.69,6.92 -108.96,20.65 -30.3,13.78 -51.2,35.51 -62.74,65.24l0 245.25 -83.42 0 0 -396.35z"/>
   <path class="fil0" d="M5701.74 646.72c-9.37,-9.37 -14.04,-20.92 -14.04,-34.67 0,-13.78 4.67,-25.32 14.04,-34.67 9.35,-9.34 20.93,-14.05 34.7,-14.05 14.3,0 26.26,4.7 35.91,14.05 9.63,9.35 14.47,20.9 14.47,34.67 0,13.75 -4.84,25.3 -14.47,34.67 -9.65,9.37 -21.61,14.05 -35.91,14.05 -13.78,0 -25.35,-4.68 -34.7,-14.05zm-7.41 91.68l85.02 0 0 396.35 -85.02 0 0 -396.35z"/>
   <path class="fil0" d="M5958.13 1121.09c-31.65,-17.33 -56.43,-41.8 -74.31,-73.5 -17.87,-31.63 -26.85,-68.38 -26.85,-110.22 0,-41.28 8.98,-77.85 26.85,-109.83 17.88,-31.91 42.67,-56.83 74.31,-74.72 31.66,-17.87 67.32,-26.83 106.93,-26.83 71.57,0 125.78,21.76 162.65,65.24l0 -266.71 83.41 0 0 610.19 -80.94 0 0 -57.79c-22,24.23 -46.07,41.97 -72.23,53.27 -26.14,11.25 -57.13,16.92 -92.89,16.92 -39.61,0 -75.28,-8.66 -106.93,-26.02zm215.53 -66.88c25.57,-17.85 43.59,-41.99 54.06,-72.26l0 -89.17c-9.37,-30.27 -27.11,-54.48 -53.27,-72.65 -26.14,-18.16 -56.26,-27.26 -90.37,-27.26 -27,0 -51.37,6.08 -73.1,18.18 -21.74,12.11 -38.8,29.18 -51.17,51.19 -12.41,22.01 -18.59,47.06 -18.59,75.13 0,28.09 6.18,53.14 18.59,75.15 12.37,22.04 29.43,38.95 51.17,50.77 21.74,11.87 46.1,17.76 73.1,17.76 34.1,0 63.98,-8.95 89.57,-26.83z"/>
   <path class="fil0" d="M6526.2 1318.02c-25.59,-4.43 -47.22,-10.73 -64.82,-18.96l0 -68.58c41.27,18.74 89.18,28.1 143.68,28.1 51.19,0 88.48,-11.15 111.88,-33.44 23.39,-22.31 35.09,-56.04 35.09,-101.15l0 -42.09c-36.35,43.48 -89.72,65.19 -160.18,65.19 -40.21,0 -76.27,-8.8 -108.17,-26.39 -31.95,-17.63 -56.98,-42.41 -75.15,-74.33 -18.18,-31.9 -27.26,-68.55 -27.26,-109.81 0,-41.84 8.95,-78.59 26.85,-110.24 17.88,-31.66 42.64,-56.26 74.3,-73.89 31.68,-17.64 67.31,-26.41 106.93,-26.41 36.89,0 68.13,5.36 93.72,16.07 25.59,10.75 49.41,28.49 71.42,53.27l0 -56.96 80.92 0 0 376.52c0,67.69 -18.87,119.57 -56.56,155.6 -37.69,36.08 -95.65,54.11 -173.8,54.11 -26.98,0 -53.24,-2.22 -78.86,-6.6zm172.57 -264.21c26.14,-18.18 43.89,-42.42 53.26,-72.66l0 -89.2c-10.46,-30.81 -28.49,-55.02 -54.06,-72.65 -25.59,-17.59 -55.47,-26.41 -89.63,-26.41 -26.95,0 -51.31,5.94 -73.07,17.73 -21.74,11.87 -38.81,28.79 -51.19,50.8 -12.39,22.04 -18.57,47.09 -18.57,75.15 0,28.65 6.19,53.79 18.57,75.56 12.39,21.74 29.46,38.65 51.19,50.8 21.76,12.09 46.12,18.15 73.07,18.15 34.15,0 64.28,-9.08 90.42,-27.25z"/>
   <path class="fil0" d="M6967.96 1092.2c-41.57,-36.6 -62.34,-88.21 -62.34,-154.83 0,-64.94 18.57,-116.41 55.74,-154.39 37.15,-37.99 90.15,-57.01 158.94,-57.01 45.71,0 84.51,8.69 116.43,26.02 31.93,17.36 55.99,41.3 72.24,71.85 16.25,30.54 24.36,65.36 24.36,104.46l0 41.3 -348.45 0c2.75,37.44 18.6,65.34 47.51,83.8 28.89,18.44 68.08,27.67 117.65,27.67 25.3,0 50.91,-2.33 76.79,-7.02 25.87,-4.67 48.71,-10.85 68.55,-18.57l0 66.89c-17.64,7.15 -40.9,13.04 -69.76,17.7 -28.91,4.73 -57.4,7.06 -85.5,7.06 -73.2,0 -130.6,-18.3 -172.15,-54.91zm286.92 -181.24c-1.09,-37.41 -13.33,-66.5 -36.75,-87.12 -23.37,-20.63 -56.51,-30.99 -99.49,-30.99 -41.84,0 -74.31,10.76 -97.43,32.25 -23.13,21.44 -35.22,50.05 -36.33,85.86l270.01 0z"/>
  </g>
  <g id="_7WF">
   <path class="fil0" d="M1369.19 693.68c-33.21,-16.4 -64.97,-32.05 -97.14,-47.96 -8.98,15.04 -20.31,23.37 -36.8,19.61 -14.27,-3.27 -22.08,-12.98 -23.37,-29.26 -60.39,3.02 -114.16,22.94 -159.69,61.9 -45.28,38.77 -73.28,88.53 -83.71,148.45 -36.7,-17.36 -72.73,-34.18 -108.57,-51.39 -162.18,-77.83 -324.53,-155.2 -486.29,-233.8 -86.06,-41.84 -171.13,-85.71 -256.5,-128.96 -4.63,-2.38 -9.65,-6.9 -11.4,-11.57 -35.27,-94.29 -70.09,-188.76 -104.98,-283.18 -0.39,-1.04 -0.52,-2.15 -0.74,-3.12 202.98,129.56 406,259.15 609,388.68 0.84,-1.02 1.71,-2.07 2.57,-3.11 -15.09,-23.15 -30.32,-46.15 -45.18,-69.39 -31.33,-49.06 -63.39,-97.67 -93.09,-147.72 -7.27,-12.27 -8.08,-29.11 -9.33,-44.07 -7.04,-85.12 -13.35,-170.35 -19.88,-255.51 -0.07,-0.94 0.4,-1.96 0.67,-3.29 170.25,213.77 340.14,427.06 510.73,641.22 21.69,-36.33 49.31,-65.46 82.75,-89.13 85.44,-60.44 201.16,-64.64 286.96,-10.09 29.58,18.81 53.07,43.87 71.5,73.5 5.94,9.57 13.18,16.02 23.54,20.45 26.96,11.63 53.54,24.17 79.95,38.95 -10.46,2.06 -20.98,3.89 -31.43,6.11 -78.74,16.89 -126.55,65.29 -145.93,142.97 -9.5,38.13 -16.96,77.08 -30.27,113.88 -43.04,118.85 -125.38,202.96 -236.99,259.94 -64.81,33.07 -134.7,49.74 -205.43,63.61 -66.77,13.13 -133.67,25.59 -200.57,38.33 -3.21,0.59 -6.55,0.74 -9.86,1.13 -0.74,-1.06 -1.46,-2.1 -2.2,-3.19 52.95,-46.78 105.11,-94.59 159.04,-140.24 81.91,-69.37 173.28,-124.51 268.03,-174.52 44.74,-23.6 89.96,-47.61 121.35,-89.03 18.65,-24.63 34.3,-51.57 50.97,-77.68 32.15,-50.3 72.13,-92.12 126.42,-118.83 1.31,-0.62 2.47,-1.54 5.86,-3.71z"/>
   <path class="fil1" d="M342.5 1559.65c0.15,-3.24 -0.37,-6.7 0.57,-9.67 24.61,-78 49.37,-155.92 74.04,-233.84 0.69,-2.15 1.14,-4.35 2.15,-8.27 -13.03,3.44 -25.05,6.36 -36.94,9.77 -106.86,30.71 -213.67,61.48 -320.53,92.12 -2.82,0.84 -5.94,0.62 -8.93,0.86l-0.2 0.47c83.91,-61.01 167.3,-122.76 251.93,-182.83 92.39,-65.61 184.98,-130.99 279.4,-193.63 34.4,-22.82 74.22,-37.49 111.58,-55.81 1.96,-0.96 4.03,-1.68 7.96,-3.26 -34.3,-2.72 -66.43,-6.11 -98.65,-7.62 -81.96,-3.85 -154.1,-33.28 -219.17,-82 -16.71,-12.48 -33.28,-25.17 -50.43,-38.13 198.29,24.46 395.14,48.75 592.67,73.11 -6.58,7.09 -13.65,14.67 -20.68,22.33 -137.87,150.02 -275.74,300.03 -413.63,450.02 -48.48,52.75 -96.97,105.48 -145.37,158.28 -2.27,2.44 -3.95,5.52 -5.91,8.29l0.13 -0.15z"/>
   <path class="fil2" d="M908.81 873.52c-16.38,-2.59 -32.87,-4.5 -49.04,-7.87 -127.98,-26.53 -256.11,-52.3 -383.71,-80.44 -56.69,-12.46 -112.28,-29.9 -168.41,-44.86 -22.92,-6.11 -41.5,-18.89 -58.16,-35.29 -42.84,-42.17 -74.54,-92.02 -103.2,-147.64 250.64,117.84 510.73,206.47 763.37,313.23 -0.3,0.96 -0.55,1.91 -0.84,2.87z"/>
   <path class="fil3" d="M52.86 1410.65c0.05,0.25 0.13,0.52 0.19,0.74 -0.12,-0.1 -0.24,-0.22 -0.39,-0.3 0,0 0.2,-0.45 0.2,-0.45z"/>
   <polygon class="fil3" points="342.38,1559.8 341.86,1559.42 342.51,1559.65 "/>
  </g>
 </g>
</svg>
